<?xml version="1.0" encoding="UTF-8"?>
<svg width="63px" height="47px" viewBox="0 0 63 47" version="1.1" xmlns="http://www.w3.org/2000/svg" xmlns:xlink="http://www.w3.org/1999/xlink">
    <!-- Generator: Sketch 63 (92445) - https://sketch.com -->
    <title>Group 2</title>
    <desc>Created with Sketch.</desc>
    <g id="New-Icons" stroke="none" stroke-width="1" fill="none" fill-rule="evenodd">
        <g id="Artboard" transform="translate(-68.000000, -101.000000)" fill-rule="nonzero">
            <g id="Group-2" transform="translate(69.000000, 102.000000)">
                <g id="Group" transform="translate(13.000000, 5.000000)">
                    <rect id="Rectangle" fill="#333366" x="2.5" y="2.5" width="5" height="5"></rect>
                    <rect id="Rectangle" stroke="#333366" stroke-width="2" x="-1" y="-1" width="12" height="12"></rect>
                </g>
                <g id="Group" transform="translate(13.000000, 30.000000)">
                    <rect id="Rectangle" fill="#333366" x="2.5" y="2.5" width="5" height="5"></rect>
                    <rect id="Rectangle" stroke="#333366" stroke-width="2" x="-1" y="-1" width="12" height="12"></rect>
                </g>
                <g id="Group" transform="translate(38.000000, 5.000000)">
                    <rect id="Rectangle" fill="#333366" x="2.5" y="2.5" width="5" height="5"></rect>
                    <rect id="Rectangle" stroke="#333366" stroke-width="2" x="-1" y="-1" width="12" height="12"></rect>
                </g>
                <rect id="Rectangle" fill="#333366" x="23" y="21" width="5" height="4"></rect>
                <rect id="Rectangle" fill="#333366" x="32" y="11" width="4" height="4"></rect>
                <rect id="Rectangle" fill="#333366" x="27" y="15" width="5" height="5"></rect>
                <rect id="Rectangle" fill="#333366" x="25" y="8" width="5" height="5"></rect>
                <rect id="Rectangle" fill="#333366" x="31" y="3" width="5" height="5"></rect>
                <rect id="Rectangle" fill="#333366" x="13.5" y="21.5" width="5" height="4"></rect>
                <rect id="Rectangle" fill="#333366" x="11" y="25.5" width="5" height="2.5"></rect>
                <rect id="Rectangle" fill="#333366" x="18.5" y="16" width="5" height="5"></rect>
                <rect id="Rectangle" fill="#333366" x="28" y="22" width="5" height="5"></rect>
                <rect id="Rectangle" fill="#333366" x="25" y="32" width="5" height="5"></rect>
                <rect id="Rectangle" fill="#333366" x="30" y="37" width="5" height="5"></rect>
                <rect id="Rectangle" fill="#333366" x="36" y="17" width="5" height="5"></rect>
                <rect id="Rectangle" fill="#333366" x="45" y="17" width="5" height="5"></rect>
                <rect id="Rectangle" fill="#333366" x="30" y="27" width="5" height="5"></rect>
                <rect id="Rectangle" fill="#333366" x="37.5" y="27" width="5" height="5"></rect>
                <rect id="Rectangle" fill="#333366" x="45" y="24.5" width="5" height="5"></rect>
                <rect id="Rectangle" fill="#333366" x="40" y="22" width="5" height="5"></rect>
                <rect id="Rectangle" fill="#333366" x="35" y="32" width="5" height="5"></rect>
                <rect id="Rectangle" fill="#333366" x="45" y="39.5" width="5" height="2.5"></rect>
                <rect id="Rectangle" fill="#333366" x="40" y="34.5" width="5" height="5"></rect>
                <rect id="Rectangle" fill="#333366" transform="translate(47.500000, 34.500000) scale(-1, 1) translate(-47.500000, -34.500000) " x="45" y="32" width="5" height="5"></rect>
                <polyline id="Path-3" stroke="#333366" stroke-width="2" stroke-linecap="round" points="20 0 8 0 8 12"></polyline>
                <polyline id="Path-3" stroke="#333366" stroke-width="2" stroke-linecap="round" transform="translate(47.000000, 6.000000) scale(-1, 1) translate(-47.000000, -6.000000) " points="53 0 41 0 41 12"></polyline>
                <polyline id="Path-3" stroke="#333366" stroke-width="2" stroke-linecap="round" transform="translate(14.000000, 39.000000) scale(1, -1) translate(-14.000000, -39.000000) " points="20 33 8 33 8 45"></polyline>
                <polyline id="Path-3" stroke="#333366" stroke-width="2" stroke-linecap="round" transform="translate(47.000000, 39.000000) scale(-1, -1) translate(-47.000000, -39.000000) " points="53 33 41 33 41 45"></polyline>
                <line x1="0" y1="22" x2="61" y2="22" id="Path-4" stroke="#333366" stroke-width="2" stroke-linecap="round"></line>
                <polyline id="Path-3" stroke="#333366" stroke-width="2" stroke-linecap="round" points="20 0 8 0 8 12"></polyline>
                <polyline id="Path-3" stroke="#333366" stroke-width="2" stroke-linecap="round" transform="translate(47.000000, 6.000000) scale(-1, 1) translate(-47.000000, -6.000000) " points="53 0 41 0 41 12"></polyline>
                <polyline id="Path-3" stroke="#333366" stroke-width="2" stroke-linecap="round" transform="translate(14.000000, 39.000000) scale(1, -1) translate(-14.000000, -39.000000) " points="20 33 8 33 8 45"></polyline>
                <polyline id="Path-3" stroke="#333366" stroke-width="2" stroke-linecap="round" transform="translate(47.000000, 39.000000) scale(-1, -1) translate(-47.000000, -39.000000) " points="53 33 41 33 41 45"></polyline>
                <line x1="0" y1="22" x2="61" y2="22" id="Path-4" stroke="#333366" stroke-width="2" stroke-linecap="round"></line>
            </g>
        </g>
    </g>
</svg>