<?xml version="1.0" encoding="utf-8"?>
<!-- Generator: Adobe Illustrator 22.0.1, SVG Export Plug-In . SVG Version: 6.00 Build 0)  -->
<svg version="1.1" id="Õ_xBA__x2264__x201E__x5F_1"
	 xmlns="http://www.w3.org/2000/svg" xmlns:xlink="http://www.w3.org/1999/xlink" x="0px" y="0px" viewBox="0 0 74.3 62.6"
	 style="enable-background:new 0 0 74.3 62.6;" xml:space="preserve">
<style type="text/css">
	.st0{fill:#333366;}
</style>
<g>
	<g>
		<path class="st0" d="M67.9,34.8v19.4c0,1.1-0.9,2-2,2H8.2c-1.1,0-2-0.9-2-2V34.8c-3.4,0-5.6-0.8-6.2-2.4v23.8
			c0,3.4,2.8,6.2,6.2,6.2h61.7c3.4,0,6.2-2.8,6.2-6.2V32.4C73.1,34.2,70.7,34.8,67.9,34.8z"/>
	</g>
	<path class="st0" d="M41,27.5h-7.9c-1.4,0-2.4,1.3-2.4,3.1V32v2v3.9c0,1.8,1,3.1,2.4,3.1h7.8c1.2,0,2.4-1.1,2.4-3.1V34v-2v-1.4
		C43.4,28.6,42.2,27.5,41,27.5z M39.5,32v5.1h-5V34l0,0v-2.7h5V32L39.5,32z"/>
	<g>
		<path class="st0" d="M47-0.1H27.1c-3.1,0-5.7,2.6-5.7,5.7v0.7v4.4h4.2V6.3V5.6c0-0.8,0.7-1.5,1.5-1.5h20c0.8,0,1.5,0.7,1.5,1.5
			v0.7v4.4h4.2V6.3V5.6C52.8,2.5,50.2-0.1,47-0.1z"/>
		<path class="st0" d="M67.9,8.7H6.2C2.8,8.7,0,11.5,0,14.9v10.8c0,3.4,2.8,6.2,6.2,6.2h61.7c3.4,0,6.2-2.8,6.2-6.2V14.8
			C74.1,11.4,71.3,8.7,67.9,8.7z M67.6,26.2H6.5V14.1h61.1V26.2z"/>
	</g>
</g>
</svg>
