<?xml version="1.0" encoding="utf-8"?>
<!-- Generator: Adobe Illustrator 19.0.0, SVG Export Plug-In . SVG Version: 6.00 Build 0)  -->
<svg version="1.1" id="USPS_x5F_Blue_x5F_295C" xmlns="http://www.w3.org/2000/svg" xmlns:xlink="http://www.w3.org/1999/xlink"
	 x="0px" y="0px" viewBox="0 0 100 100" style="enable-background:new 0 0 100 100;" xml:space="preserve">
<style type="text/css">
	.st0{fill:#333366;}
</style>
<g>
	<g>
		<path class="st0" d="M73.3,99.1H26.7c-7.2,0-13-5.8-13-13V13.9c0-7.2,5.8-13,13-13h46.5c7.2,0,13,5.8,13,13v72.3
			C86.3,93.3,80.4,99.1,73.3,99.1z M26.7,10c-2.1,0-3.8,1.7-3.8,3.8v72.3c0,2.1,1.7,3.8,3.8,3.8h46.5c2.1,0,3.8-1.7,3.8-3.8V13.9
			c0-2.1-1.8-3.8-3.8-3.8H26.7z"/>
	</g>
	<path class="st0" d="M39.9,76.7c0,2.6-2.1,4.7-4.7,4.7c-2.6,0-4.7-2.1-4.7-4.7c0-2.6,2.1-4.7,4.7-4.7C37.8,72,39.9,74.1,39.9,76.7"
		/>
	<path class="st0" d="M39.9,62.1c0,2.6-2.1,4.7-4.7,4.7c-2.6,0-4.7-2.1-4.7-4.7c0-2.6,2.1-4.7,4.7-4.7
		C37.8,57.4,39.9,59.5,39.9,62.1"/>
	<path class="st0" d="M39.9,47.5c0,2.6-2.1,4.7-4.7,4.7c-2.6,0-4.7-2.1-4.7-4.7c0-2.6,2.1-4.7,4.7-4.7
		C37.8,42.8,39.9,44.9,39.9,47.5"/>
	<path class="st0" d="M54.7,76.7c0,2.6-2.1,4.7-4.7,4.7c-2.6,0-4.7-2.1-4.7-4.7c0-2.6,2.1-4.7,4.7-4.7C52.6,72,54.7,74.1,54.7,76.7"
		/>
	<path class="st0" d="M54.7,62.1c0,2.6-2.1,4.7-4.7,4.7c-2.6,0-4.7-2.1-4.7-4.7c0-2.6,2.1-4.7,4.7-4.7
		C52.6,57.4,54.7,59.5,54.7,62.1"/>
	<path class="st0" d="M54.7,47.5c0,2.6-2.1,4.7-4.7,4.7c-2.6,0-4.7-2.1-4.7-4.7c0-2.6,2.1-4.7,4.7-4.7
		C52.6,42.8,54.7,44.9,54.7,47.5"/>
	<path class="st0" d="M69.6,76.7c0,2.6-2.1,4.7-4.7,4.7c-2.6,0-4.7-2.1-4.7-4.7c0-2.6,2.1-4.7,4.7-4.7C67.4,72,69.6,74.1,69.6,76.7"
		/>
	<path class="st0" d="M69.6,62.1c0,2.6-2.1,4.7-4.7,4.7c-2.6,0-4.7-2.1-4.7-4.7c0-2.6,2.1-4.7,4.7-4.7
		C67.4,57.4,69.6,59.5,69.6,62.1"/>
	<path class="st0" d="M69.6,47.5c0,2.6-2.1,4.7-4.7,4.7c-2.6,0-4.7-2.1-4.7-4.7c0-2.6,2.1-4.7,4.7-4.7
		C67.4,42.8,69.6,44.9,69.6,47.5"/>
	<path class="st0" d="M39,25.9c0,3.2-2.6,5.9-5.9,5.9c-3.2,0-5.9-2.6-5.9-5.9c0-3.2,2.6-5.9,5.9-5.9C36.4,20.1,39,22.7,39,25.9"/>
	<path class="st0" d="M72.7,25.9c0,3.2-2.6,5.9-5.9,5.9c-3.2,0-5.8-2.6-5.8-5.9c0-3.2,2.6-5.9,5.8-5.9
		C70.1,20.1,72.7,22.7,72.7,25.9"/>
	<rect x="33.1" y="20.1" class="st0" width="33.7" height="11.7"/>
</g>
</svg>
