<?xml version="1.0" encoding="utf-8"?>
<!-- Generator: Adobe Illustrator 22.0.1, SVG Export Plug-In . SVG Version: 6.00 Build 0)  -->
<svg version="1.1" id="Outlined_x5F_Icons" xmlns="http://www.w3.org/2000/svg" xmlns:xlink="http://www.w3.org/1999/xlink" x="0px"
	 y="0px" viewBox="0 0 79.5 81.8" style="enable-background:new 0 0 79.5 81.8;" xml:space="preserve">
<style type="text/css">
	.st0{fill:#333366;}
</style>
<g>
	<g>
		<rect x="16.8" y="37.1" class="st0" width="9.4" height="9.4"/>
		<rect x="16.8" y="55.7" class="st0" width="9.4" height="9.4"/>
	</g>
	<g>
		<rect x="53.3" y="37.1" class="st0" width="9.4" height="9.4"/>
		<rect x="53.3" y="55.7" class="st0" width="9.4" height="9.4"/>
	</g>
	<g>
		<rect x="35.1" y="37.1" class="st0" width="9.4" height="9.4"/>
		<rect x="35.1" y="55.7" class="st0" width="9.4" height="9.4"/>
	</g>
	<path class="st0" d="M75.5,8h-9.4v6c0,4.2-3.4,7.6-7.6,7.6c-4.2,0-7.6-3.4-7.6-7.6V8H28.5v6c0,4.2-3.4,7.6-7.6,7.6
		c-4.2,0-7.6-3.4-7.6-7.6V8H4c-2.2,0-4,1.8-4,4v65.8c0,2.2,1.8,4,4,4h71.5c2.2,0,4-1.8,4-4V12C79.5,9.8,77.8,8,75.5,8z M71.5,73.8H8
		V28.3h63.5V73.8z"/>
	<g>
		<rect x="16.8" y="37.1" class="st0" width="9.4" height="9.4"/>
		<rect x="16.8" y="55.7" class="st0" width="9.4" height="9.4"/>
	</g>
	<g>
		<rect x="53.3" y="37.1" class="st0" width="9.4" height="9.4"/>
		<rect x="53.3" y="55.7" class="st0" width="9.4" height="9.4"/>
	</g>
	<g>
		<rect x="35.1" y="37.1" class="st0" width="9.4" height="9.4"/>
		<rect x="35.1" y="55.7" class="st0" width="9.4" height="9.4"/>
	</g>
	<g>
		<path class="st0" d="M20.9,0c-2.2,0-4.1,1.8-4.1,4.1v10c0,2.2,1.8,4.1,4.1,4.1c2.2,0,4.1-1.8,4.1-4.1v-10C25,1.8,23.2,0,20.9,0z"
			/>
	</g>
	<g>
		<path class="st0" d="M58.6,0c-2.2,0-4.1,1.8-4.1,4.1v10c0,2.2,1.8,4.1,4.1,4.1c2.2,0,4.1-1.8,4.1-4.1v-10C62.7,1.8,60.8,0,58.6,0z
			"/>
	</g>
</g>
</svg>
