<?xml version="1.0" encoding="utf-8"?>
<!-- Generator: Adobe Illustrator 22.0.1, SVG Export Plug-In . SVG Version: 6.00 Build 0)  -->
<svg version="1.1" id="Outlined" xmlns="http://www.w3.org/2000/svg" xmlns:xlink="http://www.w3.org/1999/xlink" x="0px" y="0px"
	 viewBox="0 0 88 126.5" style="enable-background:new 0 0 88 126.5;" xml:space="preserve">
<style type="text/css">
	.st0{fill:#333366;}
</style>
<g>
	<g>
		<g>
			<g>
				<path class="st0" d="M33.8,59.4c-0.1-0.1-0.1-0.2-0.2-0.3c-0.3-0.6-0.7-1.1-1.2-1.6c-1.5-1.6-3.2-2.6-5.4-2.8
					c-1.1-0.1-2.2,0.1-3.2,0.8c-1.8,1.3-2.6,3.1-2.5,5.3c0,1,0.2,1.9,0.5,2.8c0.5,1.6,1.3,3.2,2.1,4.6c1.2,2,2.5,3.9,4,5.8
					c1.7,2.1,3.5,4.1,5.4,6c0.1,0.1,0.2,0.2,0.3,0.3c0.2-0.1,0.4-0.2,0.6-0.4c1.7-1,3.3-2.2,4.8-3.5s3-2.7,4.2-4.4
					c1-1.3,1.8-2.7,2.3-4.2c0.5-1.6,0.6-3.3,0.2-4.9c-0.4-1.4-1.2-2.7-2.2-3.8c-1.6-1.7-3.5-2.4-5.8-2.2c-1.6,0.1-2.9,0.9-3.9,2.1
					C33.9,59.2,33.9,59.3,33.8,59.4z"/>
			</g>
			<g>
				<path class="st0" d="M33.8,57.7c0.1-0.1,0.1-0.2,0.2-0.2c1-1.2,2.3-2,3.9-2.1c2.3-0.2,4.2,0.6,5.8,2.2c1,1.1,1.8,2.3,2.2,3.8
					c0.5,1.7,0.4,3.3-0.2,4.9c-0.5,1.6-1.3,2.9-2.3,4.2c-1.2,1.6-2.7,3.1-4.2,4.4s-3.1,2.5-4.8,3.5c-0.2,0.1-0.4,0.2-0.6,0.4
					c-0.1-0.1-0.2-0.2-0.3-0.3c-1.9-1.9-3.7-3.9-5.4-6c-1.5-1.8-2.8-3.7-4-5.8c-0.9-1.5-1.6-3-2.1-4.6c-0.3-0.9-0.5-1.9-0.5-2.8
					c-0.1-2.2,0.7-4,2.5-5.3c0.9-0.7,2-0.9,3.2-0.8c2.2,0.2,3.9,1.2,5.4,2.8c0.5,0.5,0.8,1,1.2,1.6C33.7,57.5,33.7,57.6,33.8,57.7z"
					/>
			</g>
		</g>
	</g>
	<path class="st0" d="M84.2,2.4c-0.8-0.8-2-1.1-3.1-1L5,9.3c-0.1,0-0.2,0-0.3,0.1c-0.1,0-0.2,0-0.3,0.1C4.2,9.6,4,9.6,3.8,9.7
		c-0.1,0-0.1,0-0.2,0.1c-0.2,0.1-0.5,0.3-0.7,0.4l0,0l-0.1,0.1c-0.2,0.1-0.3,0.3-0.4,0.4c-0.1,0.1-0.1,0.1-0.2,0.2
		C2.1,11,2,11.2,1.9,11.4c0,0.1-0.1,0.2-0.1,0.3c-0.1,0.2-0.1,0.4-0.2,0.5c0,0.1,0,0.2-0.1,0.2c-0.1,0.3-0.1,0.5-0.1,0.8v88.6v2.1
		c0,1.8,1.2,3.3,2.9,3.8l59.5,17.6c0.4,0.1,0.8,0.2,1.1,0.2c0.9,0,1.7-0.3,2.4-0.8c1-0.8,1.6-1.9,1.6-3.2V99.3l13-1.4
		c2-0.2,3.6-1.9,3.6-4V5.4C85.6,4.3,85.1,3.2,84.2,2.4z M61,52.9v39.2v8v16.1l-40.3-11.9h0.1l-11.4-3.4v-3.4V52.9V18.2l51.5,10.9
		L61,52.9L61,52.9z M77.6,90.4L69,91.3V25.9c0-1.9-1.3-3.5-3.2-3.9l-34.6-7.3l46.4-4.8C77.6,9.9,77.6,90.4,77.6,90.4z"/>
</g>
</svg>
