<?xml version="1.0" encoding="utf-8"?>
<!-- Generator: Adobe Illustrator 19.0.0, SVG Export Plug-In . SVG Version: 6.00 Build 0)  -->
<svg version="1.1" id="Isolation_Mode" xmlns="http://www.w3.org/2000/svg" xmlns:xlink="http://www.w3.org/1999/xlink" x="0px"
	 y="0px" viewBox="0 0 100 100" style="enable-background:new 0 0 100 100;" xml:space="preserve">
<style type="text/css">
	.st0{fill:none;}
	.st1{fill:#333366;}
</style>
<g>
	<g>
		<g>
			<g>
				<g>
					<g>
						<path class="st0" d="M75.6,46.9h8.1l-33.9-38L37.5,23.4v-4.2H28v15L15.8,46.9H24v32.3h17.4V58.9h14.1v5"/>
						<path class="st1" d="M55.5,63.9v-5H41.4v20.3H24V46.9h-8.1L28,34.1v-15h9.5v4.2L49.8,8.9l33.9,38h-8.1v8.3
							c2.9,0.2,5.7,0.8,8.4,2v-1.9c3.2-0.1,6.1-2,7.4-5c1.4-3,0.8-6.6-1.4-9.1l-34-38c-1.6-1.8-3.9-2.8-6.3-2.8c0,0-0.1,0-0.1,0
							c-2.4,0-4.8,1.1-6.3,3l-6.1,7.3H28c-4.7,0-8.4,3.8-8.4,8.4v11.6L9.7,41.1c-2.3,2.4-3,6-1.7,9.1c1.3,3,4.2,5,7.5,5.1v23.9
							c0,4.7,3.8,8.4,8.4,8.4h27.3c-0.9-2.6-1.5-5.4-1.5-8.2C49.8,73.7,51.8,68.2,55.5,63.9z"/>
					</g>
				</g>
			</g>
			<g>
				<g>
					<g>
						<g>
							<path class="st1" d="M74.1,99.6c-5.2,0-10.3-2-14.2-5.9c-3.8-3.8-5.9-8.9-5.9-14.3s2.1-10.4,5.9-14.3
								c7.9-7.9,20.6-7.9,28.5,0c7.9,7.9,7.9,20.6,0,28.5C84.5,97.6,79.3,99.6,74.1,99.6z M74.1,64.6c-3.8,0-7.6,1.4-10.5,4.3
								c-2.8,2.8-4.3,6.5-4.3,10.5c0,4,1.5,7.7,4.3,10.5c5.8,5.8,15.2,5.8,20.9,0c5.8-5.8,5.8-15.2,0-20.9
								C81.7,66.1,77.9,64.6,74.1,64.6z"/>
						</g>
					</g>
				</g>
			</g>
		</g>
	</g>
	<path class="st1" d="M85.1,79.5L85.1,79.5l-9-8l0,0h0c-0.1-0.2-0.3-0.3-0.6-0.3c-0.4,0-0.6,0.2-0.7,0.6c0,0,0,0,0,0
		c0,0,0,0.1,0,0.1v0l0,0l0,0V76h0v0.1h0v0h-8.6h-1.2v6.7l1.2,0h8.6V87v0v0v0c0,0.1,0,0.1,0,0.1c0,0,0,0,0,0c0.1,0.3,0.4,0.6,0.7,0.6
		c0.2,0,0.4-0.1,0.6-0.3h0l0,0L85.1,79.5L85.1,79.5z"/>
</g>
</svg>
