<?xml version="1.0" encoding="utf-8"?>
<!-- Generator: Adobe Illustrator 19.0.0, SVG Export Plug-In . SVG Version: 6.00 Build 0)  -->
<svg version="1.1" xmlns="http://www.w3.org/2000/svg" xmlns:xlink="http://www.w3.org/1999/xlink" x="0px" y="0px"
	 viewBox="0 0 100 100" style="enable-background:new 0 0 100 100;" xml:space="preserve">
<style type="text/css">
	.st0{fill:#333366;}
</style>
<g id="Original_Artwork">
</g>
<g id="USPS_x5F_Blue_x5F_295C">
	<path class="st0" d="M87.5,2.5L50,40L12.5,2.5c-2.7-2.7-7.2-2.7-9.9,0c-2.7,2.7-2.7,7.2,0,9.9L40.1,50L2.6,87.5
		c-2.7,2.7-2.7,7.2,0,9.9c2.7,2.7,7.2,2.7,9.9,0L50,59.9l37.5,37.5c2.7,2.7,7.2,2.7,9.9,0c2.7-2.7,2.7-7.2,0-9.9L59.9,50l37.5-37.5
		c2.7-2.7,2.7-7.2,0-9.9C94.7-0.2,90.2-0.2,87.5,2.5z"/>
</g>
<g id="USPS_x5F_RED_x5F_485C">
</g>
</svg>
