<svg xmlns="http://www.w3.org/2000/svg" viewBox="0 0 85.16 85.6"><defs><style>.cls-1{fill:#336;}</style></defs><title>Asset 2</title><g id="Layer_2" data-name="Layer 2"><g id="USPS_Blue_295C"><path class="cls-1" d="M77.84,21.17H74.12V11.32A11.33,11.33,0,0,0,62.8,0H22.35A11.33,11.33,0,0,0,11,11.32v9.85H7.32A7.34,7.34,0,0,0,0,28.48V51A7.34,7.34,0,0,0,7.32,58.3h3.57V74.14A11.48,11.48,0,0,0,22.35,85.6H62.8A11.47,11.47,0,0,0,74.26,74.14V58.3h3.58A7.33,7.33,0,0,0,85.16,51V28.48A7.34,7.34,0,0,0,77.84,21.17ZM19,11.32A3.32,3.32,0,0,1,22.35,8H62.8a3.32,3.32,0,0,1,3.32,3.32v9.85H19ZM66,58.3V74.14a3.17,3.17,0,0,1-3.17,3.17H22.35a3.17,3.17,0,0,1-3.17-3.17V46.21H66ZM64.19,35.9a3.49,3.49,0,1,1,3.49-3.49A3.49,3.49,0,0,1,64.19,35.9Zm11.36,0A3.49,3.49,0,1,1,79,32.42,3.49,3.49,0,0,1,75.55,35.9Z"/><rect class="cls-1" x="29.14" y="53.84" width="2.8" height="18.89"/><rect class="cls-1" x="35.87" y="53.84" width="2.52" height="18.89"/><rect class="cls-1" x="42.42" y="53.84" width="5.86" height="18.89"/><rect class="cls-1" x="52.27" y="53.84" width="3.69" height="18.89"/></g></g></svg>