<?xml version="1.0" encoding="utf-8"?>
<!-- Generator: Adobe Illustrator 19.0.0, SVG Export Plug-In . SVG Version: 6.00 Build 0)  -->
<svg version="1.1" id="Original_Artwork" xmlns="http://www.w3.org/2000/svg" xmlns:xlink="http://www.w3.org/1999/xlink" x="0px"
	 y="0px" viewBox="0 0 100 100" style="enable-background:new 0 0 100 100;" xml:space="preserve">
<style type="text/css">
	.st0{fill:#333366;}
</style>
<g>
	<g>
		<g>
			<path class="st0" d="M20,46.9l9.3-10.4h-9v-4.3h16v3.7L27,46.2h9.3v4.3H20V46.9z"/>
			<path class="st0" d="M39.6,32.1h5.1v18.5h-5.1V32.1z"/>
			<path class="st0" d="M49.7,32.1h7.9c4.7,0,7.7,2.4,7.7,6.5v0.1c0,4.4-3.4,6.7-7.9,6.7h-2.5v5.3h-5.1V32.1z M57.2,41.3
				c1.8,0,2.9-1,2.9-2.4v-0.1c0-1.6-1.1-2.4-3-2.4h-2.4v4.9H57.2z"/>
		</g>
		<path class="st0" d="M98.8,95.7L75.6,67.3C87.7,51,86.4,27.8,71.6,13C63.8,5.2,53.3,0.9,42.2,0.9S20.7,5.2,12.8,13
			C5,20.9,0.7,31.3,0.7,42.4C0.7,53.5,5,64,12.9,71.8C20.7,79.7,31.1,84,42.2,84c9.2,0,17.9-3,25.1-8.4l28.6,23.1
			c0.8,0.7,1.9,0.7,2.7,0C99.5,97.9,99.6,96.6,98.8,95.7z M19.3,65.4c-6.1-6.1-9.5-14.3-9.5-23c0-8.7,3.4-16.8,9.5-23
			c6.1-6.1,14.3-9.5,23-9.5c8.7,0,16.8,3.4,23,9.5l0,0c12.7,12.7,12.7,33.3,0,46c-6.1,6.1-14.3,9.5-23,9.5S25.4,71.6,19.3,65.4z"/>
	</g>
	<g>
		<path class="st0" d="M59.2,51.1h-0.6v-2.7h-1v-0.5h2.6v0.5h-1V51.1z"/>
		<path class="st0" d="M62.5,50.3L62.5,50.3l-1-1.5v2.3h-0.6v-3.2h0.6l1,1.5l1-1.5h0.6v3.2h-0.6v-2.3L62.5,50.3z"/>
	</g>
</g>
</svg>
