<?xml version="1.0" encoding="utf-8"?>
<!-- Generator: Adobe Illustrator 19.0.0, SVG Export Plug-In . SVG Version: 6.00 Build 0)  -->
<svg version="1.1" id="USPS_x5F_Blue_x5F_295C" xmlns="http://www.w3.org/2000/svg" xmlns:xlink="http://www.w3.org/1999/xlink"
	 x="0px" y="0px" viewBox="0 0 100 100" style="enable-background:new 0 0 100 100;" xml:space="preserve">
<style type="text/css">
	.st0{fill:#333366;}
</style>
<g>
	<g>
		<path class="st0" d="M99,21.9L86.9,8.8c-0.7-0.8-1.7-1.2-2.8-1.2H37.1c-1.1,0-2.1,0.4-2.8,1.2L22.2,21.9c-0.7,0.7-1,1.6-1,2.6V45
			h7.6V26.6h24h14.8c0,0,0,0,0,0H73v12.3l6.8,3.6l7.3-3.6V26.6h5.3v51.8H65.9V86h30.3c2.1,0,3.8-1.7,3.8-3.8V24.5
			C100,23.5,99.6,22.6,99,21.9z M51.3,22.5H32.1l6.7-7.3H53L51.3,22.5z M55.4,22.5l1.7-7h6.3l1.7,7H55.4z M69.3,22.5l-1.8-7.3h14.9
			l6.7,7.3H69.3z"/>
	</g>
	<path class="st0" d="M58.4,49.6H2.9c-1.6,0-2.9,1.3-2.9,2.9v37.1c0,1.6,1.3,2.9,2.9,2.9h55.5c1.6,0,2.9-1.3,2.9-2.9V52.5
		C61.3,50.9,60,49.6,58.4,49.6z M55.5,86.7H5.7V55.4h28.9v10.5l6.8,3.6l7.3-3.6V55.4h6.7V86.7z"/>
</g>
</svg>
