<?xml version="1.0" encoding="utf-8"?>
<!-- Generator: Adobe Illustrator 22.0.1, SVG Export Plug-In . SVG Version: 6.00 Build 0)  -->
<svg version="1.1" id="Layer_1" xmlns="http://www.w3.org/2000/svg" xmlns:xlink="http://www.w3.org/1999/xlink" x="0px" y="0px"
	 viewBox="0 0 28.4 32.4" style="enable-background:new 0 0 28.4 32.4;" xml:space="preserve">
<style type="text/css">
	.st0{fill:#333366;}
</style>
<path class="st0" d="M26.7,9.9H1.6c-0.8,0-1.4,0.6-1.4,1.4v7.1c0,0.8,0.6,1.4,1.4,1.4h0.6v10.6c0,0.8,0.6,1.4,1.4,1.4h21.1
	c0.8,0,1.4-0.6,1.4-1.4V19.8h0.6c0.8,0,1.4-0.6,1.4-1.4v-7.1C28.2,10.5,27.5,9.9,26.7,9.9z M12.2,29.9h-8v-10h8V29.9z M12.2,17.9
	h-10v-6h10V17.9z M24.2,29.9h-8v-10h8V29.9z M26.2,17.9h-10v-6h10V17.9z"/>
<path class="st0" d="M9.2,8.5h10c2.5,0,5-0.5,5-4c0-2.2-1-4-4-4c-4,0-6,3-6,3s-2-3-6-3c-3,0-4,1.8-4,4C4.2,8,6.7,8.5,9.2,8.5z
	 M16.2,4.5c1-1,2.4-2,3.5-2c1.4,0,1.5,1,1.5,2c0,1.8-0.6,2-2,2h-3V4.5z M8.7,2.5c1.2,0,2.5,1,3.5,2v2h-3c-1.4,0-2-0.2-2-2
	C7.2,3.5,7.3,2.5,8.7,2.5z"/>
</svg>
