<?xml version="1.0" encoding="utf-8"?>
<!-- Generator: Adobe Illustrator 19.0.0, SVG Export Plug-In . SVG Version: 6.00 Build 0)  -->
<svg version="1.1" id="USPS_x5F_Blue_x5F_295C" xmlns="http://www.w3.org/2000/svg" xmlns:xlink="http://www.w3.org/1999/xlink"
	 x="0px" y="0px" viewBox="0 0 100 100" style="enable-background:new 0 0 100 100;" xml:space="preserve">
<style type="text/css">
	.st0{fill:#333366;}
</style>
<g>
	<g>
		<g>
			<g>
				<path class="st0" d="M70.3,99H29.7L1,70.3V29.7L29.7,1h40.6L99,29.7v40.6L70.3,99z M33.5,89.8h33l23.3-23.3v-33L66.5,10.2h-33
					L10.2,33.5v33L33.5,89.8z"/>
			</g>
		</g>
	</g>
	<path class="st0" d="M69.3,31.7c-0.5-0.5-1.3-0.8-2.1-0.8c0,0,0,0,0,0c-1.1,0-2,0.5-2.3,1.3l-1.5,19.3c-0.1,0.9-0.9,1.4-1.8,1.3
		c-0.7-0.1-1.3-0.8-1.3-1.5l1.1-25.5c0-1.7-1.2-3.1-2.8-3.2h0c-1.8,0-2.6,1.5-2.6,3l-0.9,25.5c-0.1,0.9-0.9,1.5-1.7,1.4
		c-0.7-0.1-1.3-0.7-1.3-1.5l-0.2-29.8c-0.2-1.5-1.4-2.8-2.8-2.8c0,0,0,0,0,0c-1.7,0-2.5,1.7-2.6,3.4l0.2,28.7c0,0.1,0.1,0.2,0.1,0.3
		c0,0.8-0.7,1.5-1.5,1.5c-0.8,0-1.5-0.6-1.5-1.4h0l-1.6-24.2c0-0.9-0.3-1.7-0.8-2.3c-0.5-0.6-1.3-0.9-2-1h0c-1.7,0-3,1.3-3,3
		l1.5,29.2c0.1,0.7,0.1,1.5-0.9,2c-0.9,0.5-2-0.5-2-0.5l-7.3-5.6c-0.3-0.4-1-0.7-1.7-0.7c-0.8,0-1.6,0.3-2.3,0.8
		c-0.9,0.6-1.5,1.4-1.6,2.2c-0.1,0.3,0,0.8,0.3,1.2l13.9,17.9c2,5,7.1,8.3,12.9,8.5l4.5,0.1c0.1,0,0.3,0,0.4,0
		C61.6,81.5,67.8,76,68,69l0.5-17.2L70,33.3C70.1,32.7,69.8,32.1,69.3,31.7z"/>
</g>
</svg>
