<?xml version="1.0" encoding="utf-8"?>
<!-- Generator: Adobe Illustrator 22.0.1, SVG Export Plug-In . SVG Version: 6.00 Build 0)  -->
<svg version="1.1" id="Layer_1" xmlns="http://www.w3.org/2000/svg" xmlns:xlink="http://www.w3.org/1999/xlink" x="0px" y="0px"
	 viewBox="0 0 26.6 25" style="enable-background:new 0 0 26.6 25;" xml:space="preserve">
<style type="text/css">
	.st0{fill:none;}
	.st1{fill:#333366;}
	.st2{fill:none;stroke:#333366;stroke-width:4;stroke-miterlimit:10;}
</style>
<g id="USPS_MegaMenu_PSE_1_" transform="translate(4522.134 1041.222)">
	<g id="Group_533_1_" transform="translate(41.866 68.3)">
		<g id="Group_532_1_" transform="translate(0 0)">
			<g id="Group_491_1_">
				<g id="Group_486_1_" transform="translate(0.965 1.019)">
					<g id="Group_485_1_">
						<g id="Group_484_1_">
							<g id="Group_483_1_">
								<path class="st0" d="M-4560.7-1097.2c1-2.3,3.9-1.2,4.4,0.9c2.1-0.8,4.2-1.4,7.1-1.5c3-0.2,5.6-0.9,8.3-0.9l-1.9-10.7
									l-21.1,3.7l2.1,11.8C-4561.6-1095.1-4561.2-1096.2-4560.7-1097.2z"/>
							</g>
						</g>
					</g>
				</g>
				<g id="Group_490_1_">
					<g id="Group_489_1_">
						<g id="Group_488_1_">
							<g id="Group_487_1_">
								<path class="st1" d="M-4560.3-1094.9l-0.5-2.6l-1.2-6.5l19.2-3.4l1.7,9.7c0.6,0,1.3-0.1,1.9,0l-2-11.2
									c-0.1-0.4-0.4-0.6-0.7-0.6h-0.1l-21.5,3.8c-0.4,0.1-0.7,0.5-0.6,0.9c0,0,0,0,0,0l2.2,12.5c0.1,0.3,0.2,0.4,0.4,0.5
									C-4561-1092.8-4560.7-1093.9-4560.3-1094.9z"/>
							</g>
						</g>
					</g>
				</g>
			</g>
			<g id="Group_507_1_" transform="translate(8.027 6.113)">
				<g id="Group_496_1_">
					<g id="Group_495_1_">
						<g id="Group_494_1_">
							<g id="Group_493_1_">
								<g id="Group_492_1_">
									
										<rect id="Rectangle_111_1_" x="-4564" y="-1108.8" transform="matrix(0.9844 -0.1761 0.1761 0.9844 123.8897 -820.1628)" class="st1" width="8.1" height="1.2"/>
								</g>
							</g>
						</g>
					</g>
				</g>
				<g id="Group_501_1_" transform="translate(0.352 2.107)">
					<g id="Group_500_1_">
						<g id="Group_499_1_">
							<g id="Group_498_1_">
								<g id="Group_497_1_">
									<polygon id="Rectangle_112_1_" class="st1" points="-4564,-1108.1 -4556,-1109.5 -4555.8,-1108.4 -4558.8,-1107.9 
																			"/>
								</g>
							</g>
						</g>
					</g>
				</g>
			</g>
			<g id="Group_512_1_" transform="translate(16.742 8.984)">
				<g id="Group_511_1_">
					<g id="Group_510_1_">
						<g id="Group_509_1_">
							<g id="Group_508_1_">
								<path id="Path_349_1_" class="st2" d="M-4564-1109.5"/>
							</g>
						</g>
					</g>
				</g>
			</g>
			<g id="Group_517_1_" transform="translate(8.765 10.417)">
				<g id="Group_516_1_">
					<g id="Group_515_1_">
						<g id="Group_514_1_">
							<g id="Group_513_1_">
								<path id="Path_350_1_" class="st2" d="M-4564-1109.5"/>
							</g>
						</g>
					</g>
				</g>
			</g>
			<g id="Group_522_1_" transform="translate(17.439 10.959)">
				<g id="Group_521_1_">
					<g id="Group_520_1_">
						<g id="Group_519_1_">
							<g id="Group_518_1_">
								<path id="Path_351_1_" class="st2" d="M-4564-1109.5"/>
							</g>
						</g>
					</g>
				</g>
			</g>
			<g id="Group_527_1_" transform="translate(9.423 12.392)">
				<g id="Group_526_1_">
					<g id="Group_525_1_">
						<g id="Group_524_1_">
							<g id="Group_523_1_">
								<path id="Path_352_1_" class="st2" d="M-4564-1109.5"/>
							</g>
						</g>
					</g>
				</g>
			</g>
			<g id="Group_531_1_" transform="translate(17.744 3.679)">
				<g id="Group_530_1_">
					<g id="Group_529_1_">
						<g id="Group_528_1_">
							
								<rect id="Rectangle_114_1_" x="-4563.8" y="-1109.3" transform="matrix(0.9848 -0.1736 0.1736 0.9848 123.0469 -808.8594)" class="st1" width="2.5" height="2.9"/>
						</g>
					</g>
				</g>
			</g>
		</g>
	</g>
	<g id="Group_584_1_" transform="translate(43.183 75.425)">
		<g id="Group_583_1_" transform="translate(0)">
			<g id="Group_542_1_">
				<g id="Group_541_1_">
					<g id="Group_540_1_">
						<g id="Group_539_1_">
							<g id="Group_538_1_">
								<path id="Path_354_1_" class="st1" d="M-4560.1-1107.4l19.2,3.4l-1.8,10.2l-19.2-3.4L-4560.1-1107.4 M-4561-1109.5
									c-0.4,0-0.7,0.3-0.7,0.6l-2.2,12.5c-0.1,0.4,0.2,0.8,0.6,0.9c0,0,0,0,0,0l21.5,3.8h0.1c0.4,0,0.7-0.3,0.7-0.6l2.2-12.5
									c0.1-0.4-0.2-0.8-0.6-0.9c0,0,0,0,0,0l-21.5-3.8H-4561z"/>
							</g>
						</g>
					</g>
				</g>
			</g>
			<g id="Group_558_1_" transform="translate(7.834 6.03)">
				<g id="Group_547_1_" transform="translate(0.743)">
					<g id="Group_546_1_">
						<g id="Group_545_1_">
							<g id="Group_544_1_">
								<g id="Group_543_1_">
									
										<rect id="Rectangle_115_1_" x="-4560.5" y="-1112.3" transform="matrix(0.176 -0.9844 0.9844 0.176 -2666.4077 -5401.896)" class="st1" width="1.2" height="8.1"/>
								</g>
							</g>
						</g>
					</g>
				</g>
				<g id="Group_552_1_" transform="translate(0.389 2.106)">
					<g id="Group_551_1_">
						<g id="Group_550_1_">
							<g id="Group_549_1_">
								<g id="Group_548_1_">
									
										<rect id="Rectangle_116_1_" x="-4560.5" y="-1112.3" transform="matrix(0.1721 -0.9851 0.9851 0.1721 -2683.4292 -5409.3979)" class="st1" width="1.2" height="8.1"/>
								</g>
							</g>
						</g>
					</g>
				</g>
				<g id="Group_557_1_" transform="translate(0 4.259)">
					<g id="Group_556_1_">
						<g id="Group_555_1_">
							<g id="Group_554_1_">
								<g id="Group_553_1_">
									
										<rect id="Rectangle_117_1_" x="-4560.5" y="-1112.3" transform="matrix(0.176 -0.9844 0.9844 0.176 -2666.4077 -5401.896)" class="st1" width="1.2" height="8.1"/>
								</g>
							</g>
						</g>
					</g>
				</g>
			</g>
			<g id="Group_563_1_" transform="translate(16.51 10.378)">
				<g id="Group_562_1_">
					<g id="Group_561_1_">
						<g id="Group_560_1_">
							<g id="Group_559_1_">
								<path id="Path_355_1_" class="st2" d="M-4564-1109.5"/>
							</g>
						</g>
					</g>
				</g>
			</g>
			<g id="Group_568_1_" transform="translate(8.494 8.984)">
				<g id="Group_567_1_">
					<g id="Group_566_1_">
						<g id="Group_565_1_">
							<g id="Group_564_1_">
								<path id="Path_356_1_" class="st2" d="M-4564-1109.5"/>
							</g>
						</g>
					</g>
				</g>
			</g>
			<g id="Group_573_1_" transform="translate(16.433 12.469)">
				<g id="Group_572_1_">
					<g id="Group_571_1_">
						<g id="Group_570_1_">
							<g id="Group_569_1_">
								<path id="Path_357_1_" class="st2" d="M-4564-1109.5"/>
							</g>
						</g>
					</g>
				</g>
			</g>
			<g id="Group_578_1_" transform="translate(8.455 11.075)">
				<g id="Group_577_1_">
					<g id="Group_576_1_">
						<g id="Group_575_1_">
							<g id="Group_574_1_">
								<path id="Path_358_1_" class="st2" d="M-4564-1109.5"/>
							</g>
						</g>
					</g>
				</g>
			</g>
			<g id="Group_582_1_" transform="translate(18.565 6.122)">
				<g id="Group_581_1_">
					<g id="Group_580_1_">
						<g id="Group_579_1_">
							
								<rect id="Rectangle_118_1_" x="-4564" y="-1109.1" transform="matrix(0.1736 -0.9848 0.9848 0.1736 -2679.448 -5408.7881)" class="st1" width="2.9" height="2.5"/>
						</g>
					</g>
				</g>
			</g>
		</g>
	</g>
</g>
</svg>
