<?xml version="1.0" encoding="utf-8"?>
<!-- Generator: Adobe Illustrator 22.0.1, SVG Export Plug-In . SVG Version: 6.00 Build 0)  -->
<svg version="1.1" id="Layer_1" xmlns="http://www.w3.org/2000/svg" xmlns:xlink="http://www.w3.org/1999/xlink" x="0px" y="0px"
	 viewBox="0 0 40 40" style="enable-background:new 0 0 40 40;" xml:space="preserve">
<style type="text/css">
	.st0{fill:#343567;}
</style>
<g>
	<path class="st0" d="M20,27.5c-4.1,0-7.5-3.4-7.5-7.5s3.4-7.5,7.5-7.5c4.1,0,7.5,3.4,7.5,7.5S24.1,27.5,20,27.5 M20,14
		c-3.3,0-6,2.7-6,6c0,3.3,2.7,6,6,6c3.3,0,6-2.7,6-6C26,16.7,23.3,14,20,14"/>
	<path class="st0" d="M19.8,23.1l1.3-4.5l-1.6,0.1l-1.2,0.9v0.3l0.4-0.1c0.3,0,0.4-0.1,0.5-0.1c0,0,0,0,0,0c0,0.1-0.1,0.3-0.2,0.7
		L18.3,23c-0.1,0.3-0.2,0.6-0.2,0.8c0,0.2,0.1,0.4,0.2,0.6c0.2,0.1,0.4,0.2,0.6,0.2h0c0.3,0,0.6-0.1,0.9-0.4c0.4-0.3,0.7-0.7,1-1.1
		l0.2-0.3c0,0-1.4,0.7-1.3,0.3C19.8,23.2,19.8,23.1,19.8,23.1 M20.5,15.7c-0.6,0-1,0.5-1,1s0.5,1,1,1c0.6,0,1-0.5,1-1
		S21.1,15.7,20.5,15.7"/>
</g>
</svg>
