<?xml version="1.0" encoding="utf-8"?>
<!-- Generator: Adobe Illustrator 19.0.0, SVG Export Plug-In . SVG Version: 6.00 Build 0)  -->
<svg version="1.1" id="USPS_x5F_Blue_x5F_295C" xmlns="http://www.w3.org/2000/svg" xmlns:xlink="http://www.w3.org/1999/xlink"
	 x="0px" y="0px" viewBox="0 0 100 100" style="enable-background:new 0 0 100 100;" xml:space="preserve">
<style type="text/css">
	.st0{fill:#333366;}
</style>
<g>
	<g>
		<g>
			<path class="st0" d="M50,50.9c7.1,0,12.8-5.8,12.8-12.9c0-7.1-5.8-12.9-12.8-12.9c-7.1,0-12.9,5.7-12.9,12.9
				C37.1,45.1,42.9,50.9,50,50.9z"/>
		</g>
	</g>
	<g>
		<g>
			<path class="st0" d="M50,100l-3-2.4c-1.2-0.9-2.3-1.9-3.3-2.8c-2.1-1.8-4.2-3.8-6.2-5.8c-4.2-4.1-8-8.5-11.3-12.9
				c-7.8-10.5-12.5-20.7-14-30.6c-0.2-1.1-0.3-2-0.4-2.8c0-0.3-0.1-0.7-0.1-1l0-0.4l-0.2-5l0.2-0.2c0-1,0.1-2.2,0.3-3.4
				c0.2-1.6,0.5-2.9,0.8-4.1c0.6-2.4,1.5-4.9,2.9-7.8c1.1-2.3,2.6-4.5,4.6-7l0.2-0.2c2.2-2.5,4.1-4.3,6-5.8l0.2-0.1
				c0.9-0.7,2-1.5,3.3-2.2c1.1-0.7,2.3-1.4,3.7-2c2.2-1.1,4.7-1.9,7.9-2.7c0.9-0.2,1.7-0.3,2.4-0.4c0.4-0.1,0.8-0.1,1.2-0.2l0.5-0.1
				c0.9-0.1,2-0.1,3-0.2L50.2,0l0.3,0c0.5,0,1,0.1,1.5,0.1c0.7,0,1.5,0.1,2.2,0.1l0.5,0.1c0.4,0.1,0.8,0.1,1.2,0.2
				c0.8,0.1,1.7,0.2,2.7,0.5c3.1,0.7,5.6,1.6,7.8,2.7c1.4,0.6,2.6,1.3,3.7,2c1.2,0.7,2.3,1.5,3.2,2.2L73.5,8c2.5,1.9,4.5,4,6,5.7
				l0.2,0.2c2,2.5,3.4,4.7,4.6,7c1.4,2.9,2.4,5.4,3,7.8c0.4,1.4,0.6,2.7,0.8,3.8c0.3,1.2,0.3,2.7,0.4,4l0,0.5c0.1,2.4,0,5.4-0.5,8.4
				c-1.5,9.8-6.2,20.1-14,30.6c-3.3,4.4-7.1,8.7-11.3,12.9c-2,2-4.1,4-6.2,5.8c-1.1,0.9-2.2,1.9-3.3,2.8L50,100z M21.1,40.8
				c0,0.4,0.1,0.7,0.1,1c0.1,0.7,0.1,1.4,0.3,2.1l0,0.1c1.2,8.3,5.4,17.2,12.3,26.4c3,4,6.5,8,10.4,11.8c1.9,1.9,3.8,3.7,5.8,5.4
				c0,0,0.1,0.1,0.1,0.1c0,0,0.1-0.1,0.1-0.1c2-1.8,4-3.6,5.8-5.4c3.8-3.8,7.3-7.8,10.4-11.8c6.9-9.2,11-18.1,12.3-26.4
				c0.4-2.4,0.5-4.7,0.4-6.5l0-0.6c0-0.8-0.1-2.1-0.2-2.6L78.7,34c-0.1-1-0.3-1.9-0.6-2.8L78.1,31c-0.4-1.7-1.1-3.6-2.2-5.9
				c-0.8-1.6-1.9-3.3-3.5-5.3c-1.2-1.3-2.8-3-4.6-4.4l-0.2-0.2c-0.8-0.6-1.6-1.2-2.3-1.6L65,13.5c-0.7-0.5-1.5-0.9-2.6-1.4l-0.2-0.1
				c-1.6-0.8-3.5-1.4-6-2c-0.5-0.1-1.1-0.2-1.8-0.3c-0.5-0.1-0.9-0.1-1.4-0.2c-0.5,0-1.1-0.1-1.7-0.1c-0.5,0-1,0-1.4-0.1l-0.9,0
				c-0.8,0-1.6,0.1-2.4,0.1c-0.5,0.1-0.9,0.2-1.4,0.2c-0.6,0.1-1,0.2-1.5,0.3c-2.5,0.6-4.4,1.2-6,2l-0.2,0.1c-1,0.4-1.8,0.9-2.6,1.4
				l-0.3,0.2c-0.7,0.4-1.5,1-2.3,1.6l-0.2,0.1c-1.4,1.1-2.8,2.4-4.6,4.4c-1.5,2-2.6,3.6-3.5,5.3c-1.1,2.2-1.8,4.1-2.2,5.9l-0.1,0.3
				c-0.2,0.8-0.4,1.6-0.6,2.8l-0.1,0.4c-0.1,0.6-0.2,1.4-0.2,2.3L21,38.3L21.1,40.8z"/>
		</g>
	</g>
</g>
</svg>
