<?xml version="1.0" encoding="utf-8"?>
<!-- Generator: Adobe Illustrator 19.0.0, SVG Export Plug-In . SVG Version: 6.00 Build 0)  -->
<svg version="1.1" id="Layer_1" xmlns="http://www.w3.org/2000/svg" xmlns:xlink="http://www.w3.org/1999/xlink" x="0px" y="0px"
	 viewBox="0 0 53.8 28.3" style="enable-background:new 0 0 53.8 28.3;" xml:space="preserve">
<style type="text/css">
	.st0{fill:#FFFFFF;}
	.st1{fill:#243E8F;}
	.st2{fill:#333366;}
</style>
<g>
	<g>
		<g>
			<polygon class="st0" points="42.4,27.7 48.1,0.8 10.6,0.8 4.9,27.7 			"/>
		</g>
		<g>
			<g>
				<g>
					<path class="st1" d="M11.4,1.9c0,0,20.9,4.3,21.3,4.4C37.4,7.1,37.3,8,37.3,8c3.4,0,3.8,0.1,4.4,0.6c1.8,1.5-1.1,5.8-1.1,5.8
						C40.1,14.8,9.1,26.7,9.1,26.7h32.5l5.3-25H11.4L11.4,1.9z"/>
				</g>
				<g>
					<path class="st2" d="M11.4,1.9c0,0,20.9,4.3,21.3,4.4C37.4,7.1,37.3,8,37.3,8c3.4,0,3.8,0.1,4.4,0.6c1.8,1.5-1.1,5.8-1.1,5.8
						C40.1,14.8,9.1,26.7,9.1,26.7h32.5l5.3-25H11.4L11.4,1.9z"/>
				</g>
			</g>
			<g>
				<g>
					<path class="st2" d="M35.7,10c-0.5,0.2-1.7,0.4-2.3,0.4c-0.6,0-0.7,0.1-0.7,0.3c0,0.2,0.1,0.3,0.9,0.3c1.8,0,5.1-0.7,6.1-0.4
						c0.5,0.2,0.1,1.1-0.3,2.3c-0.2,0.5,0.2,0.4,0.3,0.2c0.2-0.2,1-1.8,1.1-2.6c0.1-1.1-0.8-1.3-2.2-1.3h-2.1
						c-0.1,0-0.2,0.1-0.3,0.2C36.1,9.7,36,9.8,35.7,10z"/>
				</g>
				<g>
					<path class="st2" d="M10.2,7.5L6.1,26.7c0,0,12.5-6.1,14-6.9c3.1-1.6,7.5-3.7,11.5-5.1c0.8-0.3,4-1.3,5.9-1.6
						c0.7-0.1,1.1-0.3,1-0.4c0-0.4-0.8-0.4-2-0.4c-3.8,0.2-11.2,3.1-13.3,4.2l-2.4-7.4h15.2c0.7-1.9-9-1.6-9.3-1.7H10.2L10.2,7.5z"
						/>
				</g>
			</g>
		</g>
	</g>
	<g>
		<path class="st2" d="M52,24c0,1.5-1.2,2.7-2.7,2.7c-1.5,0-2.7-1.2-2.7-2.7c0-1.5,1.2-2.7,2.7-2.7C50.8,21.3,52,22.5,52,24z
			 M46.9,24c0,1.3,1,2.3,2.3,2.3c1.3,0,2.3-1,2.3-2.3c0-1.3-1-2.3-2.3-2.3C47.9,21.7,46.9,22.7,46.9,24z M48.6,25.6h-0.4v-3.2h1.2
			c0.7,0,1,0.3,1,0.9c0,0.6-0.4,0.8-0.8,0.9l0.9,1.4h-0.5l-0.9-1.4h-0.7V25.6z M49.1,23.9c0.5,0,0.9,0,0.9-0.6
			c0-0.4-0.4-0.5-0.8-0.5h-0.7v1.1H49.1z"/>
	</g>
</g>
</svg>
