<svg xmlns="http://www.w3.org/2000/svg" width="64.058" height="62.083" viewBox="0 0 64.058 62.083">
  <g id="icon-loyalty-points" transform="translate(-2072.877 -397.852)">
    <path id="Path_3894" data-name="Path 3894" d="M2116.169,426.811l-9.4-4.947-9.4,4.947,1.794-10.477-7.6-7.421,10.5-1.528,4.7-9.533,4.7,9.533,10.5,1.528-7.6,7.42Zm-9.4-9.112,4.5,2.37-.861-5.02,3.647-3.561-5.04-.733-2.25-4.565-2.25,4.565-5.04.733,3.647,3.561-.86,5.021Z" transform="translate(-1.468 0)" fill="#336"/>
    <path id="Path_3895" data-name="Path 3895" d="M2136.688,428.4l-6.387-3.362-6.387,3.362,1.22-7.122-5.166-5.043,7.139-1.039,3.194-6.48,3.194,6.48,7.139,1.039-5.166,5.043Zm-6.387-6.487,2.716,1.43-.519-3.029,2.2-2.149-3.042-.442-1.357-2.753-1.356,2.753-3.043.442,2.2,2.149-.519,3.029Z" transform="translate(-3.698 -0.854)" fill="#336"/>
    <path id="Path_3896" data-name="Path 3896" d="M2089.6,428.4l-6.387-3.362-6.388,3.362,1.22-7.122-5.166-5.043,7.139-1.039,3.194-6.48,3.195,6.48,7.137,1.039-5.166,5.043Zm-6.387-6.487,2.716,1.43-.518-3.029,2.2-2.149-3.042-.442-1.356-2.753-1.356,2.753-3.043.442,2.2,2.149-.518,3.029Z" transform="translate(0 -0.854)" fill="#336"/>
    <path id="Path_3897" data-name="Path 3897" d="M2108.544,458.124a7.93,7.93,0,0,1-2.1-.285c-.076-.018-.239-.062-.313-.088l-13.043-4.618a3.53,3.53,0,0,0-.987-.149,3.451,3.451,0,0,0-1.379.3l-7.758,2.587a2.3,2.3,0,1,1-1.458-4.37l7.728-2.576a7.823,7.823,0,0,1,2.867-.546,7.914,7.914,0,0,1,2.1.287c.076.018.236.061.31.088l13.043,4.617a3.508,3.508,0,0,0,.987.149,3.187,3.187,0,0,0,1.842-.578l19.006-11.332a1,1,0,0,0,.37-1.322c-.325-.614-.6-1.135-.7-1.316-.492-.9-.68-.9-1.055-.9a.684.684,0,0,0-.312.048l-9.9,3.964a2.3,2.3,0,0,1-1.712-4.277l9.822-3.93a5.164,5.164,0,0,1,2.105-.412,5.58,5.58,0,0,1,5.1,3.3c.1.191.394.733.731,1.372a5.6,5.6,0,0,1-2.083,7.434l-18.958,11.3A7.7,7.7,0,0,1,2108.544,458.124Z" transform="translate(-0.554 1.811)" fill="#336"/>
    <path id="Path_3898" data-name="Path 3898" d="M2113.379,447.376h-9.322a2.3,2.3,0,1,1,0-4.607h9.322a1.312,1.312,0,0,0,1.31-1.309,1.016,1.016,0,0,0-.035-.295,1.34,1.34,0,0,0-1.274-1.015l-7.4.019h-.005a2.3,2.3,0,0,1-.77-.133l-7.75-2.751a7.7,7.7,0,0,0-4.454-.134l-11.5,3.218a2.3,2.3,0,0,1-1.242-4.437l11.478-3.212a12.3,12.3,0,0,1,7.25.221l7.38,2.62,7-.018a5.944,5.944,0,0,1,5.688,4.282,5.447,5.447,0,0,1,.235,1.635A5.924,5.924,0,0,1,2113.379,447.376Z" transform="translate(-0.448 1.903)" fill="#336"/>
  </g>
</svg>
