<?xml version="1.0" encoding="utf-8"?>
<!-- Generator: Adobe Illustrator 21.1.0, SVG Export Plug-In . SVG Version: 6.00 Build 0)  -->
<svg version="1.1" id="Layer_1" xmlns="http://www.w3.org/2000/svg" xmlns:xlink="http://www.w3.org/1999/xlink" x="0px" y="0px"
	 viewBox="0 0 20 20" style="enable-background:new 0 0 20 20;" xml:space="preserve">
<style type="text/css">
	.st0{fill:#343466;}
</style>
<path class="st0" d="M19.7,4.9l-2.5-2.5c-0.3-0.3-0.7-0.3-0.9,0l-2.9,2.9c-0.3,0.3-0.3,0.7,0,0.9L14,6.8c-0.3,0.1-0.2,0.5-0.3,0.5
	c-0.1,0-0.2,0-0.2,0c-1.2,0-1.9-0.5-2.9-1.1c-0.5-0.3-1-0.6-1.7-0.9C8.9,7,8.6,8.2,8,9.7c-0.7,1.6-1.8,2.7-2.2,3.1
	c-0.4,0.4-0.5,0.5-0.9,0.5c-0.4,0-0.6-0.1-1.5-0.5c-0.9-0.4-1.4-0.8-1.6-1c-0.2-0.2-0.1-0.3,0-0.5c0.1-0.2,0.7-0.8,1.4-1.7
	c0.9-1.1,1.6-2.9,1.6-2.9c0.3,0,0.7,0,0.7,0C5.4,7.5,4.6,9.2,4.6,9.2S5,9.4,5.6,9.6c0.6,0.2,1.3,0.3,1.3,0.3S7.3,9.3,7.8,8
	c0.4-1.1,0.4-2.9,0.4-2.9l0,0l0-0.4c0,0,0.5,0,0.6-0.1c0.1-0.2,0-0.5,0-0.7c0-0.1,0.1,0,0.2-0.1S8.8,3.2,8.8,3
	c0-0.1,0.2-0.2,0.6-0.3c0.2-0.1,0.3-0.1,0.3-0.2c0.1-0.1,0-0.3-0.2-0.2C9.4,2.3,9.3,2.3,9.2,2.4C8.8,2.6,8.7,2.6,8.7,2.2
	c0-0.5-0.3-0.5-0.4-0.5c-0.2,0-0.9,0-1.4,0.4c-0.6,0.4-0.7,1-0.6,1.5c0.1,0.5,0.7,1,0.7,1.1C7,4.9,6.9,5,6.5,5l0,0
	c-0.3,0-0.6,0-0.9,0c-3.2,0-5.2,2.5-5.3,2.6s-0.1,0.2,0,0.3s0.2,0.3,0.2,0.3C0.2,8.5,0.1,8.8,0.1,9c0,0.2,0.1,0.7,0.6,0.7
	s0.5-0.5,0.7-0.6s0.1-0.4,0-0.7s0.5-0.6,0.5-0.6c0.7-0.4,1.5-0.8,2.2-1C4,7.5,3.6,8.5,2.7,9.5c-1.4,1.8-1.4,1.8-1.6,1.9
	S1,11.8,1.2,12s0.9,1,2.3,1.6C2,15.2,0.6,16,0.6,16c0.9,1.3,2.3,2.3,2.3,2.3c0.3-0.8-0.1-1.5-0.1-1.5C4.7,15.6,6,14.4,7,13.1
	c3.1,2.1,4.1,4.9,4.1,4.9c2-1.2,2.6-2,2.6-2c-0.8-0.3-1.5,0-1.5,0c-1.2-2.4-2.5-4-3.8-5.2C9.1,9.7,9.3,8.7,9.4,8
	c1.8,0.7,3.4,0.7,4.1,0.7c0.8-0.1,1.2-0.4,1.5-0.6C15,8,15,7.9,15,7.8l0.9,0.9c0.3,0.3,0.7,0.3,0.9,0l2.9-2.9
	C20,5.6,20,5.2,19.7,4.9z"/>
</svg>
