<?xml version="1.0" encoding="utf-8"?>
<!-- Generator: Adobe Illustrator 19.0.0, SVG Export Plug-In . SVG Version: 6.00 Build 0)  -->
<svg version="1.1" id="Outlined" xmlns="http://www.w3.org/2000/svg" xmlns:xlink="http://www.w3.org/1999/xlink" x="0px" y="0px"
	 viewBox="0 0 100 100" style="enable-background:new 0 0 100 100;" xml:space="preserve">
<style type="text/css">
	.st0{fill-rule:evenodd;clip-rule:evenodd;fill:#333466;}
	.st1{fill:#333466;}
</style>
<g>
	<g>
		<path class="st0" d="M46.9,51.4c0,1.4-0.2,2.6-0.8,3.7c-0.5,0.9-1.1,1.6-1.9,2.1c-0.3,0.2-0.5,0.5-0.5,0.8c0,0.5,0.1,1,0.2,1.5
			c0.2,1.4,0.3,2.7,0.5,4.1c0.1,1.2,0.3,2.3,0.4,3.5c0.1,1.2,0.3,2.3,0.4,3.5c0.1,0.6,0.2,1.3,0.2,1.9c0,0.1,0,0.1,0,0.2
			c0,0.1-0.1,0.2-0.2,0.1c-0.1,0-0.2,0-0.2,0c-2.8-0.7-5.6-1.5-8.4-2.2c-0.1,0-0.1,0-0.2,0c-0.2-0.1-0.3-0.1-0.2-0.4
			c0.1-0.5,0.1-1.1,0.2-1.6c0.2-1.6,0.4-3.2,0.6-4.8c0.2-1.8,0.5-3.6,0.7-5.3c0.1-0.5,0.1-1.1,0.2-1.6c0.1-0.5-0.1-0.9-0.4-1.2
			c-1.5-1.6-2.4-3.5-2.6-5.7c-0.2-1.5,0-3,0.7-4.4c0.5-1,1.2-1.7,2.2-2.2c1.2-0.6,2.4-0.6,3.7-0.1c1.5,0.5,2.6,1.5,3.5,2.8
			c0.9,1.3,1.5,2.8,1.7,4.3C46.9,50.7,47,51.1,46.9,51.4z"/>
	</g>
	<path class="st1" d="M90,14.9L77.3,1.1C76.6,0.4,75.7,0,74.7,0H25.3c-1,0-1.9,0.4-2.6,1.1L10,14.9C9.3,15.6,9,16.5,9,17.4v62.4
		c0,1.9,1.4,3.4,3.2,3.5c0.3,0.3,0.7,0.6,1.1,0.7l54.5,15.8c0.2,0.1,0.5,0.1,0.7,0.1c0.6,0,1.1-0.2,1.6-0.5c0.7-0.5,1.1-1.3,1.1-2.1
		V83.3h16.1c2,0,3.6-1.6,3.6-3.6V17.4C91,16.5,90.7,15.6,90,14.9z M26.9,7.1h46.2l6.9,7.5l-60,0L26.9,7.1z M65.9,93.6L16.8,79.4
		V20.6L65.9,31V93.6z M83.8,76.2H71.3V28.8c0-1.3-0.9-2.4-2.1-2.6L39.8,20l44,0V76.2z"/>
</g>
</svg>
