<svg id="Layer_1" data-name="Layer 1" xmlns="http://www.w3.org/2000/svg" xmlns:xlink="http://www.w3.org/1999/xlink" viewBox="0 0 108.16 103.95"><defs><style>.cls-1{fill:#336;}.cls-2{clip-path:url(#clip-path);}.cls-3{clip-path:url(#clip-path-2);}</style><clipPath id="clip-path" transform="translate(-628.92 -332.02)"><rect class="cls-1" x="656.46" y="389.35" width="20.62" height="2.75"/></clipPath><clipPath id="clip-path-2" transform="translate(-628.92 -332.02)"><rect class="cls-1" x="656.46" y="403.35" width="17" height="2.75"/></clipPath></defs><rect class="cls-1" x="27.54" y="57.33" width="20.62" height="2.75"/><g class="cls-2"><rect class="cls-1" x="26.54" y="56.33" width="22.62" height="4.75"/></g><path class="cls-1" d="M656.46,396.35v2.75h24.89c.34-.93.72-1.85,1.15-2.75Z" transform="translate(-628.92 -332.02)"/><rect class="cls-1" x="27.54" y="71.33" width="17" height="2.75"/><g class="cls-3"><rect class="cls-1" x="26.54" y="70.33" width="19" height="4.75"/></g><path class="cls-1" d="M653.33,416.45a3.47,3.47,0,0,1-3.46-3.46V382.48h45.52a31.48,31.48,0,0,1,26.52-2.17V363.13a8,8,0,0,0-8-8h-4.07V344.38A12.37,12.37,0,0,0,697.5,332H653.33A12.37,12.37,0,0,0,641,344.38v10.76h-4.06a8,8,0,0,0-8,8V387.7a8,8,0,0,0,8,8h3.9V413a12.53,12.53,0,0,0,12.52,12.51h30.29a31.46,31.46,0,0,1-3.47-9.05Zm58.08-52.83a3.81,3.81,0,1,1-3.8,3.81A3.8,3.8,0,0,1,711.41,363.62Zm-8.59,3.81a3.81,3.81,0,1,1-3.81-3.81A3.81,3.81,0,0,1,702.82,367.43Zm-53.11-23.05a3.63,3.63,0,0,1,3.62-3.62H697.5a3.63,3.63,0,0,1,3.62,3.62v10.76H649.71Z" transform="translate(-628.92 -332.02)"/><path class="cls-1" d="M711,383.73a26.13,26.13,0,1,0,26.12,26.13A26.3,26.3,0,0,0,711,383.73Zm-8.25,6.88a28.18,28.18,0,0,0-3.58,9.62h-6.87A20.91,20.91,0,0,1,702.71,390.61Zm-12.65,19.25a20.75,20.75,0,0,1,1.37-7.15h7.43a39.87,39.87,0,0,0,0,13.2h-8A21.47,21.47,0,0,1,690.06,409.86Zm1.65,8.52h7.42a25,25,0,0,0,4.68,11.28A20.43,20.43,0,0,1,691.71,418.38ZM709.44,431h-1c-2.75-1.92-5.5-6.6-6.87-12.65h7.83Zm0-15.12h-8.11a39.87,39.87,0,0,1,0-13.2h8.11Zm0-15.68h-7.83c1.1-4.67,3-8.8,4.95-11a10.94,10.94,0,0,1,2.88-.27Zm20.22,0h-6.88a28,28,0,0,0-3.57-9.62A20.91,20.91,0,0,1,729.66,400.23ZM712.47,389a11,11,0,0,1,2.89.27c1.92,2.2,3.85,6.33,4.95,11h-7.84Zm0,13.75h8.11a39.87,39.87,0,0,1,0,13.2h-8.11Zm1,28.32h-1V418.38h7.84C718.93,424.43,716.18,429.11,713.43,431Zm4.68-1.37a24.91,24.91,0,0,0,4.67-11.28h7.43A20.43,20.43,0,0,1,718.11,429.66Zm4.95-13.75a39.88,39.88,0,0,0,0-13.2h7.42a20.52,20.52,0,0,1,1.38,7.15,21.47,21.47,0,0,1-.83,6.05Z" transform="translate(-628.92 -332.02)"/></svg>