<?xml version="1.0" encoding="utf-8"?>
<!-- Generator: Adobe Illustrator 22.0.1, SVG Export Plug-In . SVG Version: 6.00 Build 0)  -->
<svg version="1.1" id="Layer_1" xmlns="http://www.w3.org/2000/svg" xmlns:xlink="http://www.w3.org/1999/xlink" x="0px" y="0px"
	 viewBox="0 0 73.4 101.7" style="enable-background:new 0 0 73.4 101.7;" xml:space="preserve">
<style type="text/css">
	.st0{fill:#333366;}
</style>
<g>
	<g>
		<g>
			<g>
				<g>
					<path class="st0" d="M33.8,61.6H21.6c-0.9,0-1.7-0.7-1.7-1.7v-9.1c0-0.9,0.7-1.7,1.7-1.7h12.2c0.9,0,1.7,0.7,1.7,1.7v9.1
						C35.4,60.8,34.7,61.6,33.8,61.6z M23.2,58.2h8.9v-5.8h-8.9V58.2z"/>
				</g>
				<g>
					<path class="st0" d="M33.7,52.5H21.6c-0.5,0-1-0.2-1.3-0.6s-0.4-0.9-0.3-1.4l2.2-9.1c0.2-0.8,0.9-1.3,1.6-1.3h7.7
						c0.8,0,1.4,0.5,1.6,1.3l2.2,9.1c0.1,0.5,0,1-0.3,1.4S34.2,52.5,33.7,52.5z M23.7,49.1h7.9l-1.4-5.8h-5.1L23.7,49.1z"/>
				</g>
				<g>
					<path class="st0" d="M52.8,52.5H3.1c-0.9,0-1.7-0.7-1.7-1.7s0.7-1.7,1.7-1.7h49.7c0.9,0,1.7,0.7,1.7,1.7S53.7,52.5,52.8,52.5z"
						/>
				</g>
			</g>
			<g>
				<g>
					<g>
						<path class="st0" d="M6.1,90.6V51.9l8.2-8.8h27.1l8.3,8.8v11c2.2,0.7,4.2,1.7,6.1,3V50.7c0-0.8-0.3-1.5-0.8-2.1L45,37.9
							c-0.6-0.6-1.4-1-2.2-1H13c-0.9,0-1.7,0.4-2.2,1L0.8,48.6C0.3,49.2,0,49.9,0,50.7v43c0,1.7,1.4,3.1,3.1,3.1h22.6
							c-1.4-1.9-2.5-3.9-3.2-6.1H6.1z"/>
					</g>
				</g>
			</g>
			<g>
				<g>
					<g>
						<g>
							<path class="st0" d="M43.2,101.7c-4.8,0-9.3-1.9-12.7-5.2s-5.2-7.9-5.2-12.7s1.9-9.3,5.2-12.7c7.1-7,18.5-7,25.4,0l0,0l0,0
								c3.4,3.4,5.2,7.9,5.2,12.7s-1.9,9.3-5.2,12.7C52.5,99.8,48,101.7,43.2,101.7z M43.2,70.3c-3.4,0-6.9,1.3-9.5,3.9
								c-2.5,2.5-3.9,5.9-3.9,9.5c0,3.6,1.4,7,3.9,9.5c2.5,2.5,5.9,3.9,9.5,3.9c3.6,0,7-1.4,9.5-3.9c2.5-2.5,3.9-5.9,3.9-9.5
								c0-3.6-1.4-7-3.9-9.5l0,0C50,71.6,46.6,70.3,43.2,70.3z"/>
						</g>
					</g>
				</g>
			</g>
		</g>
		<g>
			<g>
				<path class="st0" d="M43.1,74.7L44,86.3c0.1,0.8-0.5,1.5-1.3,1.6s-1.5-0.5-1.6-1.3c0-0.1,0-0.2,0-0.2l1-11.6
					c0-0.3,0.3-0.5,0.6-0.5C42.9,74.3,43.1,74.5,43.1,74.7"/>
				<path class="st0" d="M42.5,88.4c-1,0-1.8-0.7-1.9-1.7l0-0.3l1-11.6c0-0.5,0.5-1,1.1-1c0.5,0,0.9,0.4,0.9,0.9l0.9,11.6
					c0.1,1-0.6,2-1.7,2.1C42.6,88.4,42.6,88.4,42.5,88.4z M42.6,74.8C42.6,74.8,42.6,74.8,42.6,74.8l-1,11.6l0,0.2
					c0.1,0.5,0.5,0.9,1,0.8c0.5-0.1,0.9-0.5,0.9-1L42.6,74.8z"/>
			</g>
			<g>
				<path class="st0" d="M42,85.1l7.2-4c0.2-0.1,0.4,0,0.5,0.1c0.1,0.2,0.1,0.3-0.1,0.5l-5.9,5.7c-0.6,0.6-1.5,0.5-2.1,0
					c-0.6-0.6-0.5-1.5,0-2.1C41.8,85.3,41.9,85.2,42,85.1"/>
				<path class="st0" d="M42.7,88.3c-0.5,0-1-0.2-1.4-0.5c-0.8-0.8-0.8-1.9-0.1-2.8l0.1-0.2l0.3,0l0.1-0.1l7.2-4
					c0.4-0.2,0.9-0.1,1.1,0.2l0.1,0.1c0.2,0.4,0.1,0.7-0.2,1.1L44,87.8C43.6,88.1,43.2,88.3,42.7,88.3z M41.8,85.8
					c-0.2,0.4-0.3,0.9,0.1,1.3c0.4,0.3,1,0.4,1.4,0l5.2-5.1l-6.3,3.5C42.2,85.6,42,85.7,41.8,85.8z"/>
			</g>
		</g>
	</g>
	<g>
		<g>
			<g>
				<path class="st0" d="M71.5,51.9C71.5,52,71.5,52,71.5,51.9C71.5,52,71.4,52,71.5,51.9c-0.1-0.1,0-0.3,0-0.4
					c0.2-1.3,0.3-2.6,0.3-3.8c0-1.4-0.2-2.7-0.5-4c-0.7-3.3-2.2-6.3-4.3-9.1c-0.6-0.8-1.2-1.6-1.9-2.3c-2.5-2.7-5.5-5-8.7-6.7
					c-0.8-0.4-1.6-0.8-2.4-1.2c-4.2-1.8-8.5-2.7-12.6-2.4c-0.2,0-0.4,0-0.5,0l0.1,0.5l0.5,2.7l0.6,3c0,0.2,0,0.4,0,0.6
					c-0.1,0.2-0.2,0.4-0.4,0.6c-0.3,0.3-0.8,0.4-1.2,0.2l-3.3-1.3l-2.5-1l-7.2-2.9l-2.3-0.9L23,22.6L16.5,20
					c-0.4-0.2-0.7-0.5-0.7-0.9c-0.1-0.4,0.1-0.8,0.4-1.1L34.8,0.3C35.1,0,35.6-0.1,36,0.1c0.1,0,0.2,0.1,0.3,0.2
					c0.3,0.2,0.4,0.5,0.5,0.8l1,5.4L38,7.1C39.5,7,41,7,42.5,7.2c2,0.2,4.1,0.7,6.1,1.4c1.3,0.5,2.6,1,3.9,1.6
					c1.1,0.5,2.1,1.1,3.2,1.7c1.6,0.9,3.1,2,4.5,3.2c0.7,0.6,1.4,1.2,2,1.8c1.8,1.7,3.5,3.6,5,5.7c0.8,1.2,1.6,2.4,2.3,3.7
					c2,3.7,3.4,7.9,3.7,12.3c0,0-0.9-5.5,0,0C74.2,44.1,71.5,51.9,71.5,51.9z"/>
			</g>
		</g>
	</g>
</g>
</svg>
