<?xml version="1.0" encoding="utf-8"?>
<!-- Generator: Adobe Illustrator 19.0.0, SVG Export Plug-In . SVG Version: 6.00 Build 0)  -->
<svg version="1.1" id="Original_Artwork" xmlns="http://www.w3.org/2000/svg" xmlns:xlink="http://www.w3.org/1999/xlink" x="0px"
	 y="0px" viewBox="-437.8 222.2 117.7 117.7" style="enable-background:new -437.8 222.2 117.7 117.7;" xml:space="preserve">
<style type="text/css">
	.st0{fill:#333366;}
</style>
<g>
	<path class="st0" d="M-387.6,320.6h-28.7v-64.2h24.3v12.2c0,1.5,1.2,2.7,2.7,2.7h19.9c1.5,0,2.7-1.2,2.7-2.7v-12.2h25.2v18.9
		c3.6,1.3,7,3.2,10,5.6v-27.3c0-1.3-0.5-2.5-1.3-3.4l-16.4-17.6c-1-1-2.3-1.6-3.7-1.6h-52.2c-1.4,0-2.7,0.6-3.7,1.6l-16.2,17.6
		c-0.9,0.9-1.3,2.1-1.3,3.4v72c0,2.8,2.2,5,5,5h39.1C-384.5,327.6-386.3,324.2-387.6,320.6z M-355.1,241l9.2,10h-21.4l-2.4-10
		H-355.1z M-383.7,241.5h8.5l2.3,9.5H-386L-383.7,241.5z M-386.7,256.4h14.6v9.5h-14.6V256.4z M-402.9,241h13.9l-2.4,10h-20.7
		L-402.9,241z"/>
	<g>
		<g>
			<g>
				<g>
					<path class="st0" d="M-353.8,338.8c-7.9,0-15.3-3.1-20.9-8.6c-5.6-5.6-8.6-13-8.6-20.9c0-7.9,3.1-15.3,8.6-20.9
						c5.6-5.6,13-8.6,20.9-8.6s15.3,3.1,20.9,8.6c11.5,11.5,11.5,30.2,0,41.7C-338.5,335.7-345.9,338.8-353.8,338.8z M-353.8,287.3
						c-5.9,0-11.4,2.3-15.5,6.4c-4.2,4.2-6.4,9.7-6.4,15.5c0,5.9,2.3,11.4,6.4,15.5c4.1,4.1,9.7,6.4,15.5,6.4
						c5.9,0,11.4-2.3,15.5-6.4c8.6-8.6,8.6-22.5,0-31.1C-342.4,289.6-347.9,287.3-353.8,287.3z"/>
				</g>
			</g>
		</g>
	</g>
	<path class="st0" d="M-342.6,305c-0.3-0.6-1.1-0.8-1.7-0.5l-7.8,4.3l-1.2-14.3c-0.1-0.7-0.6-1.3-1.5-1.3c-0.8,0-1.4,0.6-1.5,1.3
		l-1.6,18.9c0,0.2,0,0.3,0,0.5c0.1,1.6,1.5,2.8,3,2.8c0,0,0,0,0.1,0c0,0,0,0,0.1,0c0.8,0,1.5-0.3,2.1-0.8l9.7-9.3
		C-342.4,306.1-342.3,305.5-342.6,305z"/>
</g>
</svg>
