<?xml version="1.0" encoding="utf-8"?>
<!-- Generator: Adobe Illustrator 19.0.0, SVG Export Plug-In . SVG Version: 6.00 Build 0)  -->
<svg version="1.1" xmlns="http://www.w3.org/2000/svg" xmlns:xlink="http://www.w3.org/1999/xlink" x="0px" y="0px"
	 viewBox="0 0 96.8 93" style="enable-background:new 0 0 96.8 93;" xml:space="preserve">
<style type="text/css">
	.st0{fill:none;stroke:#333366;stroke-width:8;stroke-linecap:round;stroke-linejoin:round;stroke-miterlimit:10;}
	.st1{fill:#333366;}
</style>
<g id="Original_Artwork">
	<g>
		<path class="st0" d="M64,17.2C76.9,30,76.9,50.8,64,63.6c-12.8,12.8-33.6,12.8-46.3,0C4.9,50.8,4.9,30,17.7,17.2
			C30.5,4.4,51.2,4.4,64,17.2z"/>
	</g>
	<path class="st1" d="M88.3,90.2L62.1,68.9c-2.2-1.9-2.5-5.3-0.6-7.5c1.9-2.2,5.3-2.5,7.5-0.6c0.2,0.2,0.4,0.4,0.6,0.6l21.4,26.1
		c0.7,0.8,0.6,2-0.2,2.6C90,90.8,89,90.7,88.3,90.2"/>
</g>
<g id="USPS_x5F_Blue_x5F_295C">
	<path class="st1" d="M90.9,87.5L70.4,62.4c10.7-14.4,9.6-34.9-3.5-48c-6.9-6.9-16.2-10.8-26-10.8c-9.8,0-19.1,3.8-26,10.8
		c-6.9,6.9-10.8,16.2-10.8,26c0,9.8,3.8,19.1,10.8,26c6.9,6.9,16.2,10.8,26,10.8c8.1,0,15.8-2.6,22.2-7.4l25.3,20.4
		c0.7,0.6,1.7,0.6,2.4,0C91.5,89.5,91.6,88.3,90.9,87.5z M20.5,60.8c-5.4-5.4-8.4-12.7-8.4-20.3c0-7.7,3-14.9,8.4-20.3
		c5.4-5.4,12.7-8.4,20.4-8.4c7.7,0,14.9,3,20.3,8.4c11.2,11.2,11.2,29.5,0,40.7c-5.4,5.4-12.7,8.4-20.3,8.4
		C33.2,69.2,26,66.2,20.5,60.8z"/>
</g>
<g id="USPS_x5F_RED_x5F_485C">
</g>
</svg>
