<?xml version="1.0" encoding="utf-8"?>
<!-- Generator: Adobe Illustrator 22.0.1, SVG Export Plug-In . SVG Version: 6.00 Build 0)  -->
<svg version="1.1" id="Outlined" xmlns="http://www.w3.org/2000/svg" xmlns:xlink="http://www.w3.org/1999/xlink" x="0px" y="0px"
	 viewBox="0 0 131.2 111.2" style="enable-background:new 0 0 131.2 111.2;" xml:space="preserve">
<style type="text/css">
	.st0{fill:#333366;stroke:#333366;stroke-width:2;stroke-miterlimit:10;}
	.st1{fill:#333366;stroke:#333366;stroke-miterlimit:10;}
</style>
<g>
	<path class="st0" d="M42.5,92.3H10.1v-65h26.3v11.1c0,1.7,1.3,3,3,3h22.1c1.7,0,3-1.3,3-3V27.3h28v18l6.1,0.3l1.9,0.1V24.2
		c0-0.9-0.3-1.9-0.9-2.6L83.9,3.2c-0.8-0.9-1.9-1.4-3.1-1.4h-59c-1.2,0-2.3,0.5-3.1,1.4L3,21.7c-0.6,0.7-0.9,1.6-0.9,2.6v72.1
		c0,2.2,1.8,4,4,4h40.1C44.7,97.9,43.4,95.2,42.5,92.3z M79,9.8l9.8,11.6H64L62.1,9.8H79z M45.8,9.8H56l1.9,11.4H43.2L45.8,9.8z
		 M42.4,27.5h16.1v7.8H42.4V27.5z M23.6,9.8h16.1L37,21.3H13.8L23.6,9.8z"/>
	<path class="st0" d="M70.3,55.1L70.3,55.1L70.3,55.1L70.3,55.1z"/>
	<g>
		<path class="st1" d="M72,95.7c-7.1,0-12.9-6.8-12.9-15.2S64.9,65.3,72,65.3s12.9,6.8,12.9,15.2C84.9,88.8,79.1,95.7,72,95.7z
			 M72,69.2c-4.9,0-8.9,5-8.9,11.2s4,11.2,8.9,11.2s8.9-5,8.9-11.2S76.9,69.2,72,69.2z"/>
	</g>
	<path class="st0" d="M129.7,86.2c-0.2-1.6-1.7-2.7-3.3-2.6c-1.4-0.1-7.4-2.2-9.8-5.7c-1.9-2.9-3.1-5.5-4.4-8.5
		c-0.5-1.1-0.9-2.2-1.5-3.3c-1.3-2.9-3.3-5.3-5.1-7.6l-0.3-0.4c-1.4-1.7-3.9-4.1-5.6-5.1c-0.4-0.2-0.9-0.4-1.4-0.4L84.6,52l-9.8-0.5
		c-1-0.1-1.9-0.2-2.9-0.2c-0.7,0-1.3,0-2,0.1h-1v0.1c-12,1.9-21.4,14.1-21.4,28.9c0,15.5,11.4,28.7,25,29.1c0.2,0,0.4,0.1,0.6,0.1
		c0.1,0,0.3,0,0.4,0h0.4c1.3,0,2.5-0.2,3.7-0.5l21.7-2.7c0.5-0.1,1-0.3,1.4-0.6c4.7-3.5,8.1-8.6,10-14.5c12.3-1.2,15.3-1.5,16.1-1.6
		c0.1,0,0.2,0,0.3,0l0,0l0,0C128.8,89.3,129.9,87.8,129.7,86.2z M76.5,103.1l-3.1,0.4c-0.1,0-0.2,0-0.2,0
		c-10.5,0-19.6-10.8-19.6-23.1c0-12,7.4-21.9,16.9-23h1.6c1.9,0,4.1,0.5,6.1,1.2c4.3,1.9,7.8,5.6,10,10.5c0.2,0.4,0.3,0.8,0.5,1.2
		c0.6,1.7,1,3.2,1.4,4.7c0,0.1,0,0.2,0.1,0.2c0.3,1.7,0.5,3.4,0.5,5.1C90.5,92.1,84.7,101.1,76.5,103.1z M97.8,100.4l-8.2,1
		c3-3.6,5.1-8.2,6.2-13.5c1.1,1.3,2.4,2.5,4.3,3.7c0.5,0.3,1.1,0.5,1.6,0.5c0.1,0,0.2,0,0.3,0c0.7-0.1,1.4-0.1,2.1-0.2
		C102.6,95.2,100.5,98.2,97.8,100.4z M102.5,85.9c-2.1-1.5-3.1-2.9-4.5-5.8c-1.2-2.3-1.7-4.3-2.3-6.6c-0.4-1.6-0.8-3.3-1.5-5.2
		c-1.4-4-3.6-7.4-6.3-10.2l9.3,0.4c0.9,0.7,2.4,2.1,3.4,3.4l0.3,0.4c1.6,2,3.3,4.1,4.3,6.3c0.5,1.1,1,2.2,1.4,3.2
		c1.4,3.2,2.6,6.2,4.9,9.5c0.9,1.3,2,2.4,3.3,3.5C109.9,85.2,104.7,85.8,102.5,85.9z"/>
</g>
</svg>
