<svg id="Shopping_cart" data-name="Shopping cart" xmlns="http://www.w3.org/2000/svg" viewBox="0 0 100.46 73.74"><defs><style>.cls-1{fill:#606060;}</style></defs><title>Cart full</title><circle class="cls-1" cx="61.39" cy="66.36" r="7.37"/><circle class="cls-1" cx="24.27" cy="66.36" r="7.38"/><path class="cls-1" d="M175.8,222.92h50.82l14.74-44.17a4.42,4.42,0,0,1,4.17-3h8.7a4.54,4.54,0,0,1,4.58,4,4.43,4.43,0,0,1-4.41,4.85h-5.66L234,228.75a4.43,4.43,0,0,1-4.2,3h-57.2a4.42,4.42,0,0,1-4.19-3l-9.82-29.47a4.44,4.44,0,0,1,2.81-5.62h0a4.44,4.44,0,0,1,5.6,2.81Z" transform="translate(-158.37 -175.73)"/></svg>