<?xml version="1.0" encoding="utf-8"?>
<!-- Generator: Adobe Illustrator 19.0.0, SVG Export Plug-In . SVG Version: 6.00 Build 0)  -->
<svg version="1.1" id="USPS_x5F_Blue_x5F_295C" xmlns="http://www.w3.org/2000/svg" xmlns:xlink="http://www.w3.org/1999/xlink"
	 x="0px" y="0px" viewBox="0 0 100 100" style="enable-background:new 0 0 100 100;" xml:space="preserve">
<style type="text/css">
	.st0{fill:#333366;}
</style>
<path class="st0" d="M99,13.9V1H86.9c0,3.9-3.2,7.1-7.1,7.1c-3.9,0-7.1-3.2-7.1-7.1H57.3c0,3.9-3.1,7-7,7.1c-3.9,0-7-3.2-7-7.1H27.9
	c0,3.9-3.2,7.1-7.1,7.1c-3.9,0-7.1-3.2-7.1-7.1H1v12.9c3.9,0,7,3.2,7,7.1c0,3.9-3.1,7.1-7,7.1v13.7c3.9,0,7,3.2,7,7.1
	C8,52.8,4.9,56,1,56v0.3v13.5V70c3.9,0,7,3.2,7,7.1c0,3.9-3.1,7.1-7,7.1V99h12.8c0-3.9,3.2-7.1,7.1-7.1c3.9,0,7.1,3.2,7.1,7.1h15.4
	c0-3.9,3.1-7,7-7.1c3.9,0,7,3.2,7,7.1h15.4c0-3.9,3.2-7.1,7.1-7.1c3.9,0,7.1,3.2,7.1,7.1H99V84.2c-3.9,0-7.1-3.2-7.1-7.1
	c0-3.9,3.2-7.1,7.1-7.1v-0.3V56.3V56c-3.9,0-7.1-3.2-7.1-7.1c0-3.9,3.2-7.1,7.1-7.1V28.1c-3.9,0-7.1-3.2-7.1-7.1
	C92,17.1,95.1,13.9,99,13.9z M80.7,80.4H18.7V18.9h61.9V80.4z"/>
</svg>
