<?xml version="1.0" encoding="utf-8"?>
<!-- Generator: Adobe Illustrator 19.0.0, SVG Export Plug-In . SVG Version: 6.00 Build 0)  -->
<svg version="1.1" id="USPS_x5F_Blue_x5F_295C" xmlns="http://www.w3.org/2000/svg" xmlns:xlink="http://www.w3.org/1999/xlink"
	 x="0px" y="0px" viewBox="-448.5 228.8 139 121.8" style="enable-background:new -448.5 228.8 139 121.8;" xml:space="preserve">
<style type="text/css">
	.st0{fill:#333366;}
</style>
<g>
	<g>
		<g>
			<g>
				<path class="st0" d="M-388.4,320.2h-28.4v-64.1h24.2v12.2c0,1.5,1.2,2.7,2.7,2.7h19.9c1.5,0,2.7-1.2,2.7-2.7v-12.2h25.1v19.4
					c3.6,1.3,7,3.2,10,5.6v-27.7c0-1.3-0.5-2.5-1.3-3.4l-16.3-17.6c-0.9-1-2.3-1.6-3.7-1.6h-52.1c-1.4,0-2.7,0.6-3.7,1.6l-16.2,17.6
					c-0.9,0.9-1.3,2.1-1.3,3.4v71.9c0,2.8,2.2,5,5,5h38.6C-385.5,327.2-387.2,323.8-388.4,320.2z M-355.7,240.8l9.2,10h-21.4
					l-2.4-10C-370.3,240.8-355.7,240.8-355.7,240.8z M-384.2,241.3h8.5l2.3,9.5h-13.1L-384.2,241.3z M-387.3,256.1h14.6v9.5h-14.6
					V256.1z M-403.4,240.8h13.8l-2.4,10h-20.6L-403.4,240.8z"/>
			</g>
		</g>
	</g>
	<path class="st0" d="M-314.4,346.4l-16.3-20.1c8.4-11.5,7.4-27.8-2.9-38.1c-5.6-5.6-13-8.6-20.8-8.6c-7.9,0-15.3,3.1-20.8,8.6
		c-5.6,5.6-8.6,13-8.6,20.8c0,7.9,3.1,15.3,8.6,20.8c5.6,5.6,13,8.6,20.8,8.6c6.5,0,12.6-2.1,17.7-5.9l20.2,16.1
		c0.6,0.5,1.4,0.5,2-0.1C-314,348-313.9,347.1-314.4,346.4z M-370,324.5c-4.1-4.1-6.4-9.7-6.4-15.5c0-5.9,2.3-11.4,6.4-15.5
		s9.7-6.4,15.5-6.4c5.9,0,11.4,2.3,15.5,6.4c8.5,8.5,8.5,22.5,0,31c-4.1,4.1-9.7,6.4-15.5,6.4S-365.8,328.6-370,324.5z"/>
</g>
</svg>
